<svg id="wave" style="transform:rotate(0deg); transition: 0.3s" viewBox="0 0 1440 490" version="1.1" xmlns="http://www.w3.org/2000/svg"><defs><linearGradient id="sw-gradient-0" x1="0" x2="0" y1="1" y2="0"><stop stop-color="rgba(62, 123.43, 243, 1)" offset="0%"></stop><stop stop-color="rgba(17.225, 73.302, 253.079, 1)" offset="100%"></stop></linearGradient></defs><path style="transform:translate(0, 0px); opacity:1" fill="url(#sw-gradient-0)" d="M0,49L10,65.3C20,82,40,114,60,130.7C80,147,100,147,120,187.8C140,229,160,310,180,326.7C200,343,220,294,240,245C260,196,280,147,300,147C320,147,340,196,360,245C380,294,400,343,420,359.3C440,376,460,359,480,367.5C500,376,520,408,540,392C560,376,580,310,600,310.3C620,310,640,376,660,359.3C680,343,700,245,720,171.5C740,98,760,49,780,98C800,147,820,294,840,343C860,392,880,343,900,334.8C920,327,940,359,960,375.7C980,392,1000,392,1020,351.2C1040,310,1060,229,1080,163.3C1100,98,1120,49,1140,73.5C1160,98,1180,196,1200,269.5C1220,343,1240,392,1260,375.7C1280,359,1300,278,1320,277.7C1340,278,1360,359,1380,334.8C1400,310,1420,180,1430,114.3L1440,49L1440,490L1430,490C1420,490,1400,490,1380,490C1360,490,1340,490,1320,490C1300,490,1280,490,1260,490C1240,490,1220,490,1200,490C1180,490,1160,490,1140,490C1120,490,1100,490,1080,490C1060,490,1040,490,1020,490C1000,490,980,490,960,490C940,490,920,490,900,490C880,490,860,490,840,490C820,490,800,490,780,490C760,490,740,490,720,490C700,490,680,490,660,490C640,490,620,490,600,490C580,490,560,490,540,490C520,490,500,490,480,490C460,490,440,490,420,490C400,490,380,490,360,490C340,490,320,490,300,490C280,490,260,490,240,490C220,490,200,490,180,490C160,490,140,490,120,490C100,490,80,490,60,490C40,490,20,490,10,490L0,490Z"></path></svg>